<svg id="Capa_1" data-name="Capa 1" xmlns="http://www.w3.org/2000/svg" viewBox="0 0 35.27 36.24"><defs><style>.cls-1{fill:#292929;}.cls-2{fill:#fffeff;}.cls-3{fill:#2d2d2d;}.cls-4{fill:#e6e5e6;}</style></defs><title>brujula</title><path class="cls-1" d="M317.87,419.87c0-10.25,7.77-18.15,17.78-18.09s17.58,8.08,17.49,18.39A17.66,17.66,0,0,1,335.6,438C325.6,438.06,317.86,430.14,317.87,419.87Z" transform="translate(-317.87 -401.77)"/><path class="cls-2" d="M320.94,419.73a14.71,14.71,0,0,1,14.86-14.85c8.12.15,14.43,7,14.26,15.44a14.57,14.57,0,1,1-29.12-.59Z" transform="translate(-317.87 -401.77)"/><path class="cls-3" d="M329,428.35c-1.14-.15-1.8-.58-1.63-2.2.7-6.8,6.75-13.26,13.77-14.54,1.55-.28,2.6-.12,2.56,1.8C343.58,419.57,335,428.43,329,428.35Z" transform="translate(-317.87 -401.77)"/><path class="cls-4" d="M333.29,418.47l5.54-2.69c.48,2.22-.18,4.13-1.6,5S335.4,419.22,333.29,418.47Z" transform="translate(-317.87 -401.77)"/></svg>