<svg id="Capa_1" data-name="Capa 1" xmlns="http://www.w3.org/2000/svg" viewBox="0 0 38.06 38.16"><defs><style>.cls-1{fill:#f1e6c1;}.cls-2{fill:#e7dab4;}.cls-3{fill:#e7d9b0;}.cls-4{fill:#e1d3aa;}.cls-5{fill:#ccb888;}.cls-6{fill:#e3d0a9;}.cls-7{fill:#534331;}.cls-8{fill:#766a37;}.cls-9{fill:#766a5a;}.cls-10{fill:#5c5047;}.cls-11{fill:#938a76;}.cls-12{fill:#6d6454;}.cls-13{fill:#66553a;}.cls-14{fill:#735e3f;}.cls-15{fill:#a19270;}.cls-16{fill:#998766;}.cls-17{fill:#5d4f37;}.cls-18{fill:#5e4f47;}.cls-19{fill:#4f4132;}.cls-20{fill:#796b55;}.cls-21{fill:#ddd4bb;}.cls-22{fill:#655545;}.cls-23{fill:#605042;}.cls-24{fill:#64594f;}.cls-25{fill:#634f38;}.cls-26{fill:#bfae84;}.cls-27{fill:#766752;}.cls-28{fill:#766652;}.cls-29{fill:#d2c4a2;}.cls-30{fill:#6d5843;}.cls-31{fill:#523f30;}.cls-32{fill:#ac976b;}.cls-33{fill:#4e3e2c;}.cls-34{fill:#8c775d;}.cls-35{fill:#9a8b78;}.cls-36{fill:#ebe5cb;}.cls-37{fill:#715e49;}.cls-38{fill:#524032;}.cls-39{fill:#774e36;}.cls-40{fill:#4d3c2d;}.cls-41{fill:#d7c695;}.cls-42{fill:#f0e4b6;}.cls-43{fill:#897662;}.cls-44{fill:#beac92;}.cls-45{fill:#e6cdac;}.cls-46{fill:#8b785b;}.cls-47{fill:#5b473a;}.cls-48{fill:#d5b999;}.cls-49{fill:#453828;}.cls-50{fill:#4e3c2c;}.cls-51{fill:#523d29;}.cls-52{fill:#704932;}.cls-53{fill:#7d5f43;}.cls-54{fill:#443426;}.cls-55{fill:#5c4435;}.cls-56{fill:#81543b;}.cls-57{fill:#d2cab6;}.cls-58{fill:#867768;}.cls-59{fill:#544234;}.cls-60{fill:#938576;}.cls-61{fill:#674e46;}.cls-62{fill:#5d575f;}.cls-63{fill:#f5f0d3;}.cls-64{fill:#b69174;}.cls-65{fill:#c8a27b;}.cls-66{fill:#74533a;}.cls-67{fill:#5f3c27;}.cls-68{fill:#f6b9a4;}.cls-69{fill:#e5b387;}.cls-70{fill:#9f6a42;}.cls-71{fill:#625444;}.cls-72{fill:#865f48;}.cls-73{fill:#897565;}.cls-74{fill:#694a38;}</style></defs><title>fperfil</title><path class="cls-1" d="M497.92,417.86v2.07c-1,1.1-.53,2.54-.93,3.78-.5,1.56-.81,3.29-2.88,3.57s-3.1-.71-3.73-2.48a1.88,1.88,0,0,0-1.8-1.42,4.37,4.37,0,0,1-3-1.54,4.18,4.18,0,0,1-.4-1.43,5.16,5.16,0,0,1,2-4.05,6.6,6.6,0,0,1,3.11-.74C493,415.72,495.68,416,497.92,417.86Z" transform="translate(-459.96 -400.71)"/><path class="cls-2" d="M488.93,423.06c1.73-2.73,1.39.23,1.87.71,1,1,.65,3.12,3.19,2.68,2.23-.39,1.8-2.06,2.32-3.28s-.19-2.77,1.6-3.24c.83,6.13-3,10-6.66,14-2,1-3.14,0-4-1.71a6.4,6.4,0,0,1-.11-3.25C487.94,427.09,487.26,424.72,488.93,423.06Z" transform="translate(-459.96 -400.71)"/><path class="cls-3" d="M462.08,427.9a11.83,11.83,0,0,1-1.89-9.24,5.4,5.4,0,0,1,6.64-1.27,3.06,3.06,0,0,1,1.11,2,4.56,4.56,0,0,1-.28,2.16,28.62,28.62,0,0,0-1.76,2.92c-.56,1.23-.83,2.63-1.91,3.6A1.47,1.47,0,0,1,462.08,427.9Z" transform="translate(-459.96 -400.71)"/><path class="cls-4" d="M488,431.89a3.33,3.33,0,0,0,3.24,2.08c-2.33,3.16-5.7,4.27-9.4,4.74-1.32-1.6-1.14-3.45-.9-5.31a4.1,4.1,0,0,1,.58-1.42,2.79,2.79,0,0,1,2-.9C485,431.38,486.64,430.8,488,431.89Z" transform="translate(-459.96 -400.71)"/><path class="cls-5" d="M489.94,416.84,487,417a3.25,3.25,0,0,1-3.47.56c-2-2.35.65-2.14,1.6-2.81,1.2-.83,3.59.05,3.58-2.53a1.76,1.76,0,0,1,.81-.95,6.91,6.91,0,0,1,1.23-.43,31.09,31.09,0,0,1,3.82-.88h.66a7,7,0,0,1,1.79,5A42.62,42.62,0,0,1,489.94,416.84Z" transform="translate(-459.96 -400.71)"/><path class="cls-6" d="M462.08,427.9l1.94,0,.63,0c1.23.74,2.85.49,4,1.5a14.22,14.22,0,0,1,1.93,3.39,3.38,3.38,0,0,1-.09,2.61l-.48.47C465.35,435.2,463.26,432,462.08,427.9Z" transform="translate(-459.96 -400.71)"/><path class="cls-7" d="M473.87,438l-.43,0-.4-.14c-.68-.9-.44-2-.61-3a5.35,5.35,0,0,1,.09-1.26c.23-1.06.35-2.14.56-3.21a2.44,2.44,0,0,1,1.71-2,2.63,2.63,0,0,1,2.39,1.1c.44,1.48,1.5,2.62,2.16,4a4.55,4.55,0,0,1-.42,2,7.7,7.7,0,0,1-.65,1.28A3.15,3.15,0,0,1,473.87,438Z" transform="translate(-459.96 -400.71)"/><path class="cls-8" d="M490.05,411.64l-1.08-.09a2.87,2.87,0,0,1-1.33-.17,6.5,6.5,0,0,1-1.73-1.12,3.14,3.14,0,0,1-.64-1.26c.18-2.41,1-4.27,3.85-4.17a3.34,3.34,0,0,1,3.62,2.14A9.79,9.79,0,0,1,490.05,411.64Z" transform="translate(-459.96 -400.71)"/><path class="cls-9" d="M461.9,411.83c-.1-1.43.45-2.21,2-2,1.51-1.39,3.4-.57,5.1-.91a6,6,0,0,1,1.4.05c1,.25,1.84.66,1.87,1.88a3.27,3.27,0,0,1-1.44,1.71,16.9,16.9,0,0,1-4.49,1.42C464.57,413.87,462.33,414.68,461.9,411.83Z" transform="translate(-459.96 -400.71)"/><path class="cls-10" d="M469,409.89c-1.7,1.15-3.38-.41-5.07,0,.8-3.37,3.37-5.15,6.1-6.78a2.57,2.57,0,0,1,1.32,2.23A13.12,13.12,0,0,0,469,409.89Z" transform="translate(-459.96 -400.71)"/><path class="cls-11" d="M474,401.88a5.79,5.79,0,0,1,7,0,2.26,2.26,0,0,1,.48,2.6c-2.09,1.25-4.7-1.33-6.67.9a2.31,2.31,0,0,1-2-.44C472,403.47,472.84,402.61,474,401.88Z" transform="translate(-459.96 -400.71)"/><path class="cls-2" d="M489.94,416.84c2.48-.25,3.95-4.15,7.1-1.94,1.11.74,1,1.85.88,3Z" transform="translate(-459.96 -400.71)"/><path class="cls-12" d="M480.86,404.72c.05-.94.1-1.88.14-2.81,2,.33,4.27-1,6,.95,1.19,2.57-.78,2.73-2.4,3.17a6,6,0,0,1-2.49-.26A2.54,2.54,0,0,1,480.86,404.72Z" transform="translate(-459.96 -400.71)"/><path class="cls-13" d="M483.88,405c1.44-.16,3.06-.05,3.13-2.18,1.11.22,1.58,1.13,2.11,2-1.34,1.43-3.39,2.4-3.21,4.84-1.23.67-1.89-.11-2.51-1A3.35,3.35,0,0,1,483.88,405Z" transform="translate(-459.96 -400.71)"/><path class="cls-14" d="M478,434.89l.95-1c.39-.48.55-1.15,1.17-1.43a1.58,1.58,0,0,1,1.73.4c0,1.95,0,3.91,0,5.86H480A38.65,38.65,0,0,0,478,434.89Z" transform="translate(-459.96 -400.71)"/><path class="cls-15" d="M461.9,411.83c1.35,1.82,3.36.72,5,1.13a1.91,1.91,0,0,1,.73,1.27,1.87,1.87,0,0,1-1.72,2.1c-2-.26-4.15-.18-5.07-2.55C461.21,413.13,461.55,412.48,461.9,411.83Z" transform="translate(-459.96 -400.71)"/><path class="cls-16" d="M467,417.8l-6.79.86c0-.93,0-1.87,0-2.8.83-.88,1.8-.57,2.77-.34C464.26,416.33,466.55,415.42,467,417.8Z" transform="translate(-459.96 -400.71)"/><path class="cls-17" d="M490.05,411.64c-.32-2.26,1-3.59,2.69-4.67l2.51,2.95-.28-.19-.31.12c-1.1.85-2.68.76-3.63,1.88Z" transform="translate(-459.96 -400.71)"/><path class="cls-18" d="M474,401.88c-.31,1-.63,2-.94,3a1.69,1.69,0,0,1-1,.55,1.29,1.29,0,0,1-1-.52,1.92,1.92,0,0,1-1.07-1.85C471.28,402.5,472.48,401.64,474,401.88Z" transform="translate(-459.96 -400.71)"/><path class="cls-19" d="M478,434.89c1.47.85,3.84,1.22,2,3.82h-2a2.13,2.13,0,0,1,0-2.82Z" transform="translate(-459.96 -400.71)"/><path class="cls-20" d="M463.17,416l-3-.14c-.2-.84-.32-1.64.69-2.08l5,2C465,416.66,464.11,416.44,463.17,416Z" transform="translate(-459.96 -400.71)"/><path class="cls-21" d="M473.07,434.76c2.18,1.06,0,2.06,0,3.09a3,3,0,0,1-3-2h0A3.52,3.52,0,0,1,473.07,434.76Z" transform="translate(-459.96 -400.71)"/><path class="cls-22" d="M478,435.9c0,.94,0,1.88,0,2.82-1.48.25-2.92.32-4.15-.77C475.68,438.15,476.9,437.15,478,435.9Z" transform="translate(-459.96 -400.71)"/><path class="cls-23" d="M488.93,423.06c-.29,1.95.88,4.13-.88,5.86l-.62-.23a6.73,6.73,0,0,0-2.85-1.66,2.48,2.48,0,0,1-1-1.75c.33-1.55.13-3.51,2.59-3.46Z" transform="translate(-459.96 -400.71)"/><path class="cls-2" d="M482.91,416.62,487,417l-1,4a1.14,1.14,0,0,1-1.11.28,6,6,0,0,1-1.49-1.06c-.6-.52-1.23-1-1.85-1.54a2,2,0,0,1-.76-1.61,1.68,1.68,0,0,1,1-.72A1.82,1.82,0,0,1,482.91,416.62Z" transform="translate(-459.96 -400.71)"/><path class="cls-24" d="M485.11,420.85a4.14,4.14,0,0,1,.86.12c.06.28.11.56.16.85-1.52.93-1.17,2.85-2.12,4.08-.65,2.11-1.48.87-2.28.13-.05-.24-.11-.48-.17-.72s.08-.48.11-.72C482.79,423.32,482.36,420.62,485.11,420.85Z" transform="translate(-459.96 -400.71)"/><path class="cls-25" d="M488,431.89c-1.35.43-2.71.91-4-.13-1.74-.79-1.39-2-.72-3.33a2.12,2.12,0,0,1,1.59-1c1.19-.08,1.94.82,2.88,1.29l.31.22C488,429.91,488,430.9,488,431.89Z" transform="translate(-459.96 -400.71)"/><path class="cls-26" d="M463.17,416l2.71-.22c.95-.22,1.11-.95,1.13-1.77a3.21,3.21,0,0,1,3.45-.76,1.67,1.67,0,0,1,.88,1.06c-.66,1.95-2,3.51-3,5.29a1.09,1.09,0,0,1-1.23.17c0-.66-.09-1.31-.14-2Z" transform="translate(-459.96 -400.71)"/><path class="cls-27" d="M465.38,424c-.4-1.4.19-2,1.59-2a2.48,2.48,0,0,1,1.78.62,1.6,1.6,0,0,1,.39,1.2c-.66,1.45-1.68,2.07-3.25,1.4A1.82,1.82,0,0,1,465.38,424Z" transform="translate(-459.96 -400.71)"/><path class="cls-28" d="M465.38,424l.61.83a2.68,2.68,0,0,1,.69,1.41c-.28,1.33-.42,2.88-2.4,1.53l-.26.14A4.81,4.81,0,0,1,465.38,424Z" transform="translate(-459.96 -400.71)"/><path class="cls-29" d="M467.76,422.85,467,422l.15-2.18a6.88,6.88,0,0,0,.91.13l.42.43a2.61,2.61,0,0,1,.18,1.78A1.25,1.25,0,0,1,467.76,422.85Z" transform="translate(-459.96 -400.71)"/><path class="cls-30" d="M484,428.89a2.43,2.43,0,0,0,0,2.87l-1.89.3a2.94,2.94,0,0,1-1.52-2.39,1.7,1.7,0,0,1,.7-1.24A2.24,2.24,0,0,1,484,428.89Z" transform="translate(-459.96 -400.71)"/><path class="cls-31" d="M481,429.91c.85.46.93,1.33,1.09,2.15a1.08,1.08,0,0,1-.25.79H480C479.24,431.49,478.7,430.22,481,429.91Z" transform="translate(-459.96 -400.71)"/><path class="cls-32" d="M482.91,416.62h-1.06c-.89-1.63,0-2.87.9-4.1,1.56-1.46,3.54-1.61,5.52-1.76.23.27.46.53.7.79.2,1.37,1.95,1,2.52,2.42C488.6,414.87,485.76,415.75,482.91,416.62Z" transform="translate(-459.96 -400.71)"/><path class="cls-33" d="M491,411.73c.27-2.44,2.22-1.65,3.63-1.88C494.1,411.74,492.66,411.91,491,411.73Z" transform="translate(-459.96 -400.71)"/><path class="cls-34" d="M470,432.87a4.83,4.83,0,0,1-1.94-3c.47-1.2.74-2.51,2-3.25a1.66,1.66,0,0,1,1.23.23,6.12,6.12,0,0,1,1.16,3c-.25,1.16.3,2.49-.71,3.5A1.46,1.46,0,0,1,470,432.87Z" transform="translate(-459.96 -400.71)"/><path class="cls-35" d="M470,426.91a2.87,2.87,0,0,1-1.88,2.95,3.56,3.56,0,0,1-3.79-2.13c1.33,0,1.69-.78,1.68-1.91A11.14,11.14,0,0,0,470,426.91Z" transform="translate(-459.96 -400.71)"/><path class="cls-36" d="M470,432.87l1.93.1a1.51,1.51,0,0,1,1,1c.05.28.11.56.17.83-.7,1.28-1.92,1.12-3.09,1.11Z" transform="translate(-459.96 -400.71)"/><path class="cls-37" d="M481,429.91c-1.2.68-.93,1.86-1,2.93l-1.08,1c-1-1.18-4.18-1.22-2-4a2.14,2.14,0,0,1,1.1-1.51,3.29,3.29,0,0,1,1.91-.22,2.18,2.18,0,0,1,1,.73C481,429.24,481,429.57,481,429.91Z" transform="translate(-459.96 -400.71)"/><path class="cls-38" d="M471.81,429.93c-1-.8-.68-2-.85-3s.32-1.36,1.07-1.68a3.12,3.12,0,0,1,2.24.32c1,.92,1.78,1.93.78,3.33a2.09,2.09,0,0,0-1.06,2C472.87,431.47,472.39,430.58,471.81,429.93Z" transform="translate(-459.96 -400.71)"/><path class="cls-39" d="M475.05,428.87l-1.06-3c2.85-1,4,.21,4,3l-1.06,1Z" transform="translate(-459.96 -400.71)"/><path class="cls-40" d="M471.81,429.93l2.18,1c0,1.14.16,2.35-1.09,3l-1-1C471.89,432,471.85,430.94,471.81,429.93Z" transform="translate(-459.96 -400.71)"/><path class="cls-41" d="M488.27,410.76c-1.41,1.43-3.26,1.72-5.12,2-1.08-.36-1.61-1-.95-2.11,1.4-1.44,3.22.29,4.69-.63Z" transform="translate(-459.96 -400.71)"/><path class="cls-42" d="M486.89,410.05c-1.34,1.46-3.06.65-4.64.76-.17-.08-.35-.16-.54-.23a2,2,0,0,1-.14-1.15,1.74,1.74,0,0,1,1.3-1.09,1.8,1.8,0,0,1,1.09.38l2,.95Z" transform="translate(-459.96 -400.71)"/><path class="cls-43" d="M471.07,404.93l1.19.18a8,8,0,0,1,.75,1c.33.79.58,1.58-.21,2.27s-2,.52-2.67,1.44l-1.16.08C466.8,407,469,406,471.07,404.93Z" transform="translate(-459.96 -400.71)"/><path class="cls-44" d="M470.13,409.81c-.23-2.66,1.87-1.6,3.1-1.95a1.43,1.43,0,0,1,1.87-.14,2,2,0,0,1,.29,1.32,3.38,3.38,0,0,1-1.56,2.26,1.71,1.71,0,0,1-1.91-.48C471.65,409.9,470.87,409.89,470.13,409.81Z" transform="translate(-459.96 -400.71)"/><path class="cls-45" d="M471.92,410.82l2,.18c1.12,1.24.64,2.55.14,3.85a2.27,2.27,0,0,1-1.86.72,2.24,2.24,0,0,1-1.17-.65c0-.34,0-.68,0-1a1.54,1.54,0,0,1-.15-2Z" transform="translate(-459.96 -400.71)"/><path class="cls-46" d="M470.84,411.86l.15,2-4,.11c0-.35-.05-.7-.08-1.05A6.67,6.67,0,0,1,470.84,411.86Z" transform="translate(-459.96 -400.71)"/><path class="cls-47" d="M480.86,404.72l1.16.22c.6,1.27,0,2.22-.82,3.11a3.2,3.2,0,0,1-2.65-.27c-1.34-.78-2.77-1.47-3.59-2.9C476.81,400.44,478.85,403.22,480.86,404.72Z" transform="translate(-459.96 -400.71)"/><path class="cls-48" d="M475,404.88c1.77-.17,2.61,1.36,3.86,2.13a2.35,2.35,0,0,1-.37,2.68,2.72,2.72,0,0,1-2,.9c-.83-.31-2.3-.14-1.41-1.8,0-.33,0-.66,0-1-.57-1.1-1.87-1.06-2.71-1.74a3.36,3.36,0,0,1-.08-.95,5.54,5.54,0,0,1,.8-.21Z" transform="translate(-459.96 -400.71)"/><path class="cls-49" d="M481,407.85c.33-1,.67-1.94,1-2.91l1.86.1c0,1.23.05,2.45.08,3.68l-1,0C482.37,408.33,481.41,408.68,481,407.85Z" transform="translate(-459.96 -400.71)"/><path class="cls-50" d="M481,428.91l-1,0c-.46-1.72-.15-2.95,1.94-3,.68.05,1.32,1.21,2.05.07.33.32.67.63,1,.94s.38.47.28.7-.2.34-.3.34l-1,1Z" transform="translate(-459.96 -400.71)"/><path class="cls-51" d="M485,427.88c0-.35,0-.69,0-1,2.44-1.64,2.49.25,2.72,1.85Z" transform="translate(-459.96 -400.71)"/><path class="cls-52" d="M481,416.91l.92,1.17a18.53,18.53,0,0,1,.92,4.35,4.09,4.09,0,0,1-.88,2.44l-.06.06c-4.18.72-2.23-2.7-2.95-4.32-.3-1.3-1.52-1.84-2.29-2.75a2.57,2.57,0,0,1-.05-1.32c.59-1.39,1.39-2.47,3.15-2.05A2.65,2.65,0,0,1,481,416.91Z" transform="translate(-459.96 -400.71)"/><path class="cls-53" d="M481,416.91a2.09,2.09,0,0,1-1-2c-1-1.13-.48-2.19.12-3.26.47-.57,1-1,1.81-.7l.31-.11.9,2c-.43,1.27-.87,2.55-1.3,3.83A3,3,0,0,1,481,416.91Z" transform="translate(-459.96 -400.71)"/><path class="cls-54" d="M482,424.87l0-3c.64-.72.06-2.64,2-2.05l1.05,1C483.58,421.81,484.14,424.39,482,424.87Z" transform="translate(-459.96 -400.71)"/><path class="cls-55" d="M484.06,419.86l-2,2.05c-.84-1.27-1.1-2.54-.07-3.83C483.13,418.11,483.55,419,484.06,419.86Z" transform="translate(-459.96 -400.71)"/><path class="cls-56" d="M480,419.92c.9,1.57-1.38,4.38,1.94,5,0,.3,0,.6,0,.9l-1.94,3-2,0c-.89-1.6-2-2.94-4-3l-2-.07c-.43-1,.14-1.7.82-2.34a7,7,0,0,1,1.74-.78c1.31-.23,1.89-1.28,2.53-2.27C478,419.84,478.87,419.2,480,419.92Z" transform="translate(-459.96 -400.71)"/><path class="cls-57" d="M471,414.92h1a3.61,3.61,0,0,1,1,1.91,4.83,4.83,0,0,1-.46,2.85,2.78,2.78,0,0,1-1.12.92,5,5,0,0,1-1.44.23,3.27,3.27,0,0,1-2-.9v0C468.13,417.7,468.15,415.44,471,414.92Z" transform="translate(-459.96 -400.71)"/><path class="cls-58" d="M473,423.91l-1,1.92-1,1.07h-1c-1.57.53-3,.39-4-1.09l0-1a2.57,2.57,0,0,0,2.93-2l.37-.37a3.34,3.34,0,0,1,1-.3,6.15,6.15,0,0,1,1.05,0,4.66,4.66,0,0,1,1.05.21,2.34,2.34,0,0,1,.83.67A.72.72,0,0,1,473,423.91Z" transform="translate(-459.96 -400.71)"/><path class="cls-59" d="M467.76,422.85a3.06,3.06,0,0,1,.29-.9l.48-.45.61.25a.87.87,0,0,1-.09,1.15l-.13-.08Z" transform="translate(-459.96 -400.71)"/><path class="cls-60" d="M469,421.92l-.48-.05-.47.08,0-2,2.05.13A1.43,1.43,0,0,1,469,421.92Z" transform="translate(-459.96 -400.71)"/><path class="cls-61" d="M481.94,410.92l-.94,1a4,4,0,0,1-4.09-.73,1.13,1.13,0,0,1,0-1.32l1.11-.91c1.67-1.2,2.75,0,3.85,1Z" transform="translate(-459.96 -400.71)"/><path class="cls-62" d="M481.85,409.9l-3.85-1c.27-.64.55-1.27.82-1.91l2.19.84,1.95.91Z" transform="translate(-459.96 -400.71)"/><path class="cls-63" d="M472.34,406.06c.75.82,3.72-1.81,2.71,1.74l-1.82.06Z" transform="translate(-459.96 -400.71)"/><path class="cls-64" d="M476.89,409.83l.37,1.07c1.09,2.4.28,3.87-2.2,4.53a1.69,1.69,0,0,1-1.28-.67c-.84-1.29.27-2.5.14-3.76a2.7,2.7,0,0,1,1.14-2.21A2,2,0,0,0,476.89,409.83Z" transform="translate(-459.96 -400.71)"/><path class="cls-65" d="M472.16,417.09c-.05-.73-.09-1.45-.14-2.18l1.76-.15.4.22c.59.83,1.75,1,2.2,2,.07.41.14.82.22,1.24a1.66,1.66,0,0,1-1.2,2,3.47,3.47,0,0,1-2.36-.85C472.41,418.74,472.7,417.76,472.16,417.09Z" transform="translate(-459.96 -400.71)"/><path class="cls-66" d="M476.07,417c-1.28-.09-2.2-.51-1.89-2,2.28-.41,3.07-2,3.07-4.08l3.75,1-1,3c-1.58-.16-2,1.44-3.05,2C476.72,417.37,476.42,417.39,476.07,417Z" transform="translate(-459.96 -400.71)"/><path class="cls-67" d="M475.09,420c1.07-.34.94-1.22.92-2.05.27-.41.58-.44.92-.08,1.45.05,3-.06,3.07,2.06l-3,1a1.31,1.31,0,0,1-1.11.51C475.24,421.15,474.77,420.8,475.09,420Z" transform="translate(-459.96 -400.71)"/><path class="cls-68" d="M476.93,417.86a7.14,7.14,0,0,1-.92.08c0-.31,0-.61.06-.91a1.25,1.25,0,0,1,.89-.12A2.53,2.53,0,0,1,476.93,417.86Z" transform="translate(-459.96 -400.71)"/><path class="cls-69" d="M475.09,420l.69,1.05c.73,1.25-.26,2-.88,2.81l-1.88.06c0-.33,0-.65,0-1l-.09-.55a9.69,9.69,0,0,1-.38-1.07,3.07,3.07,0,0,1-.12-1.13c.15-.49,0-1.21.82-1.23A2,2,0,0,1,475.09,420Z" transform="translate(-459.96 -400.71)"/><path class="cls-70" d="M474.9,423.85c.3-.94.59-1.88.88-2.81l1.23-.16C478.2,423.21,476.07,423.19,474.9,423.85Z" transform="translate(-459.96 -400.71)"/><path class="cls-71" d="M469,421.92l1.07-1.87a1.54,1.54,0,0,1,.85,0,1.82,1.82,0,0,1,.06,2.79h-1c-.32-.36-.68-.67-1-1Z" transform="translate(-459.96 -400.71)"/><path class="cls-72" d="M473.26,419l-.27,1.94a1.12,1.12,0,0,1-1.22.05,1.09,1.09,0,0,1,.12-1.22l.27-2.63Z" transform="translate(-459.96 -400.71)"/><path class="cls-73" d="M471.89,419.72l.15,1.2a1.37,1.37,0,0,1,0,1.94l-1.09,0-.06-2.79Z" transform="translate(-459.96 -400.71)"/><path class="cls-74" d="M472.07,422.86l0-1.94c.32,0,.63,0,.95,0l.05,0a1.57,1.57,0,0,1,0,2l0,.05A7.75,7.75,0,0,0,472.07,422.86Z" transform="translate(-459.96 -400.71)"/><path class="cls-60" d="M469,421.86l1,1h-.91C469,422.56,469,422.21,469,421.86Z" transform="translate(-459.96 -400.71)"/><path class="cls-70" d="M473.07,422.88l0-2C473.74,421.52,474.39,422.19,473.07,422.88Z" transform="translate(-459.96 -400.71)"/></svg>