<svg id="Capa_1" data-name="Capa 1" xmlns="http://www.w3.org/2000/svg" viewBox="0 0 35.47 33.74"><defs><style>.cls-1{fill:#2a2a2a;}.cls-2{fill:#fefefe;}</style></defs><title>home</title><path class="cls-1" d="M137.3,426.16c0,12,0,11.89-11,11.08-2.32-.17-3.35-.92-3.27-3.26.07-2.15,0-4.31,0-6.47s-1.16-3.52-3.28-3.52-2.85,1.4-2.8,3.35c0,.33,0,.66,0,1-.39,9-.39,8.78-9.55,8.94-3.71.06-4.44-1.1-4.87-4.73-1.15-9.89,1.72-17.24,9.75-23.61,8.25-6.53,7.75-7.16,15.25,0a41.67,41.67,0,0,0,3.58,3.46C136.15,416.21,138.9,420.87,137.3,426.16Z" transform="translate(-102.29 -403.81)"/><path class="cls-2" d="M134.15,426.45a25.82,25.82,0,0,0,0,3.88c.52,3.22-.94,3.86-3.88,3.81s-4.5-.45-4.05-3.79a15.6,15.6,0,0,0-.23-4.46,5.57,5.57,0,0,0-5.89-5c-3.34,0-5.68,1.67-6.22,5.19a12.74,12.74,0,0,0-.17,3.48c.45,3.36-.66,4.48-4.27,4.6-4,.13-3.17-2.15-3.72-4.58-2.66-11.77,7.36-15.84,13.27-22.38,1.19-1.32,2.17.17,2.9.85,3.79,3.49,7.56,7,11.16,10.68C135.35,421.09,133.59,424.17,134.15,426.45Z" transform="translate(-102.29 -403.81)"/></svg>