<svg id="Capa_1" data-name="Capa 1" xmlns="http://www.w3.org/2000/svg" viewBox="0 0 234.12 234.23"><defs><style>.cls-1{fill:#2b4b9b;}.cls-2{fill:#f4f3f4;}.cls-3{fill:#2d4798;}.cls-4{fill:#2a4697;}.cls-5{fill:#e6e6f4;}.cls-6{fill:#f5f4f3;}.cls-7{fill:#f5f3f6;}.cls-8{fill:#f2f1f8;}.cls-9{fill:#eef1f2;}.cls-10{fill:#2b4493;}.cls-11{fill:#364898;}.cls-12{fill:#eeeef7;}.cls-13{fill:#f3f5ef;}.cls-14{fill:#f1eff7;}.cls-15{fill:#324596;}.cls-16{fill:#253f93;}.cls-17{fill:#deddef;}.cls-18{fill:#f0edf7;}.cls-19{fill:#314a9a;}.cls-20{fill:#304092;}.cls-21{fill:#f0eaf4;}.cls-22{fill:#344798;}.cls-23{fill:#ececf5;}.cls-24{fill:#ebf1ee;}.cls-25{fill:#2a408e;}.cls-26{fill:#f2f6ed;}.cls-27{fill:#eaeaf6;}.cls-28{fill:#2f4294;}.cls-29{fill:#384797;}.cls-30{fill:#2a3c88;}.cls-31{fill:#334596;}.cls-32{fill:#eaecf6;}.cls-33{fill:#273d91;}.cls-34{fill:#f3f4ef;}.cls-35{fill:#f2f5f0;}.cls-36{fill:#f4f3f2;}.cls-37{fill:#f4f4f2;}.cls-38{fill:#f4f4f1;}.cls-39{fill:#f4f5f1;}.cls-40{fill:#f5f4f0;}.cls-41{fill:#eff5fb;}.cls-42{fill:#f6f2f7;}.cls-43{fill:#f5f4ef;}.cls-44{fill:#f3f6ed;}.cls-45{fill:#f5f5eb;}.cls-46{fill:#f2f3f9;}.cls-47{fill:#eff0ef;}.cls-48{fill:#f4f3f7;}.cls-49{fill:#f3f3f9;}.cls-50{fill:#f3f4f8;}.cls-51{fill:#f5f4eb;}.cls-52{fill:#f3f2f9;}.cls-53{fill:#f3f3f8;}.cls-54{fill:#f6f4ec;}.cls-55{fill:#f5f4ee;}.cls-56{fill:#f2f6ec;}.cls-57{fill:#f7f2f7;}.cls-58{fill:#f1f6e6;}.cls-59{fill:#f5f1f8;}.cls-60{fill:#f4f4ef;}.cls-61{fill:#f3f6e8;}.cls-62{fill:#f3f6ef;}.cls-63{fill:#f5f6eb;}.cls-64{fill:#eff0f2;}.cls-65{fill:#f6f5ee;}.cls-66{fill:#f5f6e9;}.cls-67{fill:#eff5e4;}.cls-68{fill:#f8f1f7;}.cls-69{fill:#f3f6ea;}.cls-70{fill:#f7f1f8;}.cls-71{fill:#f3f4f0;}.cls-72{fill:#f8f7eb;}.cls-73{fill:#f5f2f8;}.cls-74{fill:#f6eef7;}.cls-75{fill:#f4f2f8;}.cls-76{fill:#f3f5ea;}.cls-77{fill:#f7f5e9;}.cls-78{fill:#f4f4eb;}.cls-79{fill:#f3f6e5;}.cls-80{fill:#f4f7f6;}.cls-81{fill:#f3f7ea;}.cls-82{fill:#f4f5ed;}.cls-83{fill:#f4f4ee;}.cls-84{fill:#f3f6ee;}.cls-85{fill:#f7f0f7;}.cls-86{fill:#dedff1;}.cls-87{fill:#040407;}.cls-88{fill:#f2f5ed;}.cls-89{fill:#f4f1f8;}.cls-90{fill:#f3f5e7;}.cls-91{fill:#eff3f3;}.cls-92{fill:#f3f7e8;}.cls-93{fill:#eff2e1;}.cls-94{fill:#f1f3e9;}.cls-95{fill:#dfe0f1;}.cls-96{fill:#e3e4f4;}.cls-97{fill:#e7e9f6;}.cls-98{fill:#f4f5ec;}.cls-99{fill:#f9f1f6;}</style></defs><title>iconocode</title><path class="cls-1" d="M354.63,161.43C355,225.82,301.86,278.71,237.2,278.5c-64.17-.21-117.09-53-116.69-117.9.39-63.94,53.16-116.86,118.27-116.33C302.57,44.8,354.63,97,354.63,161.43Z" transform="translate(-120.51 -44.27)"/><path class="cls-2" d="M290.54,187.25l-6.91,11.14c-1.75,4.25-5,7-9,9l-2.34,1.82c-1.76,2-3.67,3.82-6.52,4.14a4.62,4.62,0,0,1-2.11-.34,4.2,4.2,0,0,1-2.4-3.09c0-.37.58-.9,0-1.1a1.19,1.19,0,0,0-1.46.86,13.18,13.18,0,0,1,.05,2.35,1.85,1.85,0,0,1-2.22.82,5.16,5.16,0,0,1-1.67-1.1c-1.83-1.36-3.76-2.41-6.14-2.21a21.86,21.86,0,0,1-2.49.8c-2.25.52-5.17-1.36-6.65,1.9a15.72,15.72,0,0,1-8.17,0c-.49-.35-1.25-.58-1-1.38.27-1,.33-1-.56-.83a4.21,4.21,0,0,1-1.79-.77,6.31,6.31,0,0,1-.82-.52c0,.38.33.47.54.69.06,1.28-.85,1.74-1.82,2.17-1.33.38-2.84.08-4,1.08-1.55,1.11-2.95,2.46-4.84,3-1.92-1-4.52-.62-5.83-2.87.54-2.13,3.27-1,4-2.74-.73-.75-1.29-.07-1.89.21-1,.82-2.27,1.17-3.1,2.19a5.25,5.25,0,0,1-1.78.7c-1.13-.08-1.6-.92-2.05-1.78l.17-.22-.16.24c-3.51-.42-5.59-3-7.91-5.25-.59-1.46.72-2.27,1.23-3.46-1.24.44-2,1.51-3.29,1.7-1.92-.11-3.2-.82-2.83-3.06.51-1,.92-2,1.43-3.06.58-1.17-.67-.5-1.07-.71-3.44.17-4.39-2-5.15-4.86-.55-2.1.79-4.85-1.91-6.29-2.39-2.33-.92-4.43.35-6.55,1.26-1.89.82-4,.82-6.08-.06-1.37-.55-2.72-.28-4.11,1-2.39,2.26-4.76.42-7.31-.25-.36-.48-.74-.7-1.12-1-2-2.76-3.61-2.46-6.09.91-1.77,1.12-3.76,1.74-5.62a7,7,0,0,1,.71-1.09c.55-1.05,1-2.11.32-3.22a15.75,15.75,0,0,1-.83,2.83,1.54,1.54,0,0,1-1.06.67c-1-.15-2-.71-3.06-.47a6.24,6.24,0,0,1-2.65-.12,3,3,0,0,1-1.13-.8c-.7-1.52.3-2.63.92-3.83,1.16-1.13,2.24.83,3.38.08,1.43-1.42.56-3.43,1.34-5A5.47,5.47,0,0,1,188,136.2a8.53,8.53,0,0,1,1.07-.48c1.09-2.85-.58-5.58-.33-8.38.64-3,2.74-5,5-6.89,4.2-1.07,5.41-6.24,9.75-7.11,1.54-.6,2.93.67,4.4.34.74-.88-.84-.94-.6-1.64.76-1.77,2.56-1.53,4-2.07,1,.2,1.95,1,2.83-.16,1.2-1.22,2.66-.83,4-.53,1.14.25,1.27-.37,1.41-1.17a3.11,3.11,0,0,1,3.06-1,2.81,2.81,0,0,1,.81,1.15,4.27,4.27,0,0,1,.08,2.07,3.54,3.54,0,0,1-.59,1.2c-.48.55-1.4.61-1.6,1.42,1.37.48,2.87.09,4.14.84a2.79,2.79,0,0,1,.9,1c1.37,3.13-.54,6.74,1.48,9.76a24.93,24.93,0,0,0,2.33,1.12,4.36,4.36,0,0,1,1,.84c1.77,2.3-.29,6.51,3.83,7.64.93,1.22,1.76,2.46.6,4-7-1.07-14.86,3.57-17.12,10.14-3.48,6.34-3.92,13.1-2.87,20.08l.14,2.67c.52,3.16,2.82,5.15,4.79,7.36l.05,0a3.67,3.67,0,0,1,.87,1.71c.16.93-.17,2,.78,2.71s1.91.11,2.86-.09a3.21,3.21,0,0,1,1.92.59c7,5.21,14.13,4.51,21.3.33,4.2-.69,6.1-3.66,7.27-7.35,3.07-2.63,3.83-6.47,5.19-10-.14-4.3,2.18-5.63,6.17-5.43,6.56.34,13.15-.48,19.69.47,2.45,1.14,2.07,3.46,2.34,5.56s-.85,4.33.83,6.2a6.19,6.19,0,0,1,1.33,3,1.89,1.89,0,0,0,1.56,2.17c1,.31.88,1.17.89,2C292.37,182.53,293,185.56,290.54,187.25Z" transform="translate(-120.51 -44.27)"/><path class="cls-3" d="M260.75,161.71c.06-3,2.31-2.29,4-2.3,8.47,0,16.94,0,25.4,0,8.62,0,10.46,3.12,6.48,11a2.38,2.38,0,0,1-1.69-1.28c-.68-1.55-.46-3.26-.84-4.86-1-1.89-2.84-1.27-4.38-1.59-6.16-1.6-12.42-.46-18.63-.77C267.64,161.71,264.19,162.1,260.75,161.71Z" transform="translate(-120.51 -44.27)"/><path class="cls-4" d="M294.61,126.38c-2.8,6.24-10.73,9-18.22,6.78-11.42-3.35-12.25-14.41-9.77-21.77a4.25,4.25,0,0,1,1.26,2.76c.61,13.14,9.05,19,20.89,14.43C290.87,128.25,292.14,125.72,294.61,126.38Z" transform="translate(-120.51 -44.27)"/><path class="cls-5" d="M235.59,138.18c-.32-1.27-.65-2.53-1-3.79-.61-1,1-1.11.81-1.23-2.93-1.66-2.3-4.09-1.59-6.58,1-6.49,0-13,0-19.47a4.26,4.26,0,0,1,2.72-3.53,1.51,1.51,0,0,1,.94,0c1.39,9.24.3,18.53.53,27.79.05,2,1.11,4.27-.95,6Z" transform="translate(-120.51 -44.27)"/><path class="cls-6" d="M236.56,103.58l-1.94,2.81c-.4,4.77.12,9.55,0,14.31-.06,1.73.63,3.77-1.51,4.88-2.2-1.14-1.68-3.27-1.82-5.14-.28-3.53.46-7.12-.57-10.6-1-1.1-2.06-2.77-3.29-.16a2,2,0,0,1-1.62,1,8.82,8.82,0,0,1-3.15-2.29v-1c-1-.73-2.15.26-3.17-.26a2,2,0,0,1-1-.86C224.19,103.28,230.3,102.9,236.56,103.58Z" transform="translate(-120.51 -44.27)"/><path class="cls-7" d="M182.37,179.63l-1.74-2.28a2,2,0,0,1-.6-1.92,25.08,25.08,0,0,1,1.74-3.8c.83-1.76.47-3.63.51-5.46a18.93,18.93,0,0,0-.63-5.13,4.59,4.59,0,0,1,.78-3.83c4.87-.83,4,3.31,5,5.81a11.68,11.68,0,0,1,.41,2.35c.05,2.54.22,5.08.37,7.62-.45,2.36-.83,4.75-2.7,6.51-.76.38-1.45-.35-2.2-.13A2.42,2.42,0,0,1,182.37,179.63Z" transform="translate(-120.51 -44.27)"/><path class="cls-8" d="M248.62,184.39c-3.29,1.29-5.76,4.09-9.82,4.13-5,.06-9-1.36-12.2-5,.3-.48.64-.52,1-.11a29.93,29.93,0,0,0,19.88,0C248.63,182.91,248.81,183.46,248.62,184.39Z" transform="translate(-120.51 -44.27)"/><path class="cls-9" d="M252.8,217.46c-.14.26-.3.52-.47.78-2.11,1.71-4.75,1.24-7.17,1.69-3.65.76-7.31,1.41-11,.43-2.06-1-4.45-.67-6.51-1.67-1.31-2.83.88-3.42,2.71-4.25a8.7,8.7,0,0,1,5.65.76c4,2.08,8-.2,12,.23a23.46,23.46,0,0,1,3.66,1A2.55,2.55,0,0,1,252.8,217.46Z" transform="translate(-120.51 -44.27)"/><path class="cls-10" d="M266.76,114.64l-.14-3.25c4.57-10.32,14.49-13.21,24-7a3.37,3.37,0,0,1-2.06,1c-1.81.08-3.55-.5-5.35-.64-5.74-.45-10.32,1.24-13.13,6.63C269.35,112.76,268.75,114.45,266.76,114.64Z" transform="translate(-120.51 -44.27)"/><path class="cls-11" d="M181.76,143.4c-.26,1.35-1.52,2.44-1,4a3.17,3.17,0,0,1,.56,2.11,36.58,36.58,0,0,0-.54,5.12,30,30,0,0,0-.8,5.82,16.77,16.77,0,0,0,.52,5.94,5,5,0,0,1-.49,3.83,1,1,0,0,1-1.41.18,48.35,48.35,0,0,1,1.16-25.95c.87-2.71.39-6.43,3.82-8.05,1.47,2.24,0,4.07-.81,6A6.44,6.44,0,0,1,181.76,143.4Z" transform="translate(-120.51 -44.27)"/><path class="cls-12" d="M219.61,108.4c-.07.66,2.68,1.52-.19,2-1.63.29-3.2-.92-4.81,0a2.17,2.17,0,0,1-3,0l-4,2c.17.75,1.63.86,1,2-1.93.81-3.57.19-5.09-1a31.31,31.31,0,0,1,14.95-7.08l.26.22A3.11,3.11,0,0,0,219.61,108.4Z" transform="translate(-120.51 -44.27)"/><path class="cls-13" d="M292.69,178.35c-.88.14-1.08,2-2.27,1.11s-.14-2.05.2-3.06a20.39,20.39,0,0,0-.34-4.74c.42-3.35-1.23-7.85,4.54-8.25.65,2.52-.08,5.16.72,7.66a4.8,4.8,0,0,1-.76,3.3C295,176.18,293.21,176.93,292.69,178.35Z" transform="translate(-120.51 -44.27)"/><path class="cls-7" d="M188.61,186.39c.63-.52,1.33-1.53,1.88-1.46,1.44.18.85,1.35.72,2.31-.85,6.18.34,8.61,4.41,9.15.7,2-.77,2.79-2,3.73a19.56,19.56,0,0,1-6.13-8.37,1.86,1.86,0,0,1-.12-1.33,1.71,1.71,0,0,1,1.31-.18c.19,0-.12-.22-.2-.33C187.07,187.79,187.07,187.79,188.61,186.39Z" transform="translate(-120.51 -44.27)"/><path class="cls-14" d="M187.63,190.39l-.15,1.36a24.63,24.63,0,0,1-5.11-12.12l.31-.33a1.31,1.31,0,0,1,1.89.06l3.05-6c3.43,1.19,1.32,3.63.77,5.14A22.21,22.21,0,0,0,187.63,190.39Z" transform="translate(-120.51 -44.27)"/><path class="cls-15" d="M230.61,220.39c-6.52.92-12.24-2.17-18.26-3.74-.86-.22-3.1-.51-1.32-2.49,3.66-1.22,6.32,2.46,9.82,2a31.54,31.54,0,0,1,5.64,1.68c1,1.5,2.69.87,4,1.28a.93.93,0,0,1,.29.84Q230.73,220.39,230.61,220.39Z" transform="translate(-120.51 -44.27)"/><path class="cls-16" d="M237.08,137.33l.42-33.76c.93-.53,1.11.06,1.12.78q0,15.09,0,30.19C238.61,135.75,238.44,136.86,237.08,137.33Z" transform="translate(-120.51 -44.27)"/><path class="cls-17" d="M260.75,161.71c10.29-.71,20.57-.39,30.86-.17-.87,2.47-2.4,1.79-4,.84-7,0-13.94.27-20.88-.12-3.5-.19-5.08,1.16-6,4.12C260.76,164.82,260.76,163.27,260.75,161.71Z" transform="translate(-120.51 -44.27)"/><path class="cls-18" d="M181.79,142.41c.31-2.09,2.11-3.74,1.8-6a1.62,1.62,0,0,0,.32-.87c.49-1.72.09-4,2.76-4.32a3.06,3.06,0,0,1,1,1.85,10.6,10.6,0,0,1-1,5.34c0,1.66,0,3.32,0,5s-1,1.33-2,1C183.76,143.61,183.78,141.56,181.79,142.41Z" transform="translate(-120.51 -44.27)"/><path class="cls-19" d="M230.61,220.39v-.84c.92-1,1.95-.7,3-.28l12,.18c.34.21.45.42.34.63s-.23.31-.34.31A15.22,15.22,0,0,1,230.61,220.39Z" transform="translate(-120.51 -44.27)"/><path class="cls-20" d="M215.6,168.4c-2.15-7.14-2.56-14,2.87-20.08.28.38.88.93.79,1.1-3.1,5.62-4.53,11.46-2.83,17.84C216.51,167.55,215.89,168,215.6,168.4Z" transform="translate(-120.51 -44.27)"/><path class="cls-21" d="M248.62,184.39l-1.1-1c3.35-1.57,5-5.09,8.06-7C256.94,180.33,253.21,184.62,248.62,184.39Z" transform="translate(-120.51 -44.27)"/><path class="cls-11" d="M193.77,120.45c-.55,2.8-3.38,4.18-4.22,6.79-.77,1.06-.71,2.56-1.85,3.42a1.4,1.4,0,0,1-1.27-.14.81.81,0,0,1,.18-1.14C187.93,125.55,188.59,121.19,193.77,120.45Z" transform="translate(-120.51 -44.27)"/><path class="cls-22" d="M265.9,212.5l6.41-3.27c-.93,3.74-6.14,6.6-11,6,0-.23-.05-.45-.08-.67a2.56,2.56,0,0,1,.84-1C263.25,212.84,264.69,213.1,265.9,212.5Z" transform="translate(-120.51 -44.27)"/><path class="cls-23" d="M220.62,217.24c-3.52,0-6.21-2.63-9.59-3.08l-1.41-.95,1-.83a1.32,1.32,0,0,1,2,0c1.67,1.66,4.75.5,6,3,1-.81,1.76-.45,2.37.53A1.51,1.51,0,0,1,220.62,217.24Z" transform="translate(-120.51 -44.27)"/><path class="cls-11" d="M274.65,207.41l9-9C283.63,201.94,278.46,207.13,274.65,207.41Z" transform="translate(-120.51 -44.27)"/><path class="cls-24" d="M197.61,204.44c.26-2.57,3.51-2.18,4-5.18,2.07,3.86-1,5-2,6.94A3.1,3.1,0,0,1,197.61,204.44Z" transform="translate(-120.51 -44.27)"/><path class="cls-25" d="M294.75,110.27c2.62,4.73,3.28,9.47,0,14.22a2,2,0,0,1-.89-1.18,70,70,0,0,0,0-11.85A2.07,2.07,0,0,1,294.75,110.27Z" transform="translate(-120.51 -44.27)"/><path class="cls-26" d="M193.61,200.12c0-1.63,1.52-2.39,2-3.73h3.85c-2.12,1.88-2.49,4.16-4.69,5Z" transform="translate(-120.51 -44.27)"/><path class="cls-27" d="M220.53,178.43c-3.82-1-4.85-3.83-4.79-7.36C217.22,173.6,220.07,175.24,220.53,178.43Z" transform="translate(-120.51 -44.27)"/><path class="cls-25" d="M288.39,104.5l2.23-.11c1.74,1.7,4.38,2.77,4.13,5.88l-.43.35C291.12,109.77,289,107.86,288.39,104.5Z" transform="translate(-120.51 -44.27)"/><path class="cls-28" d="M245.61,220.39v-.94l6.72-1.21c.31.36,2.2.17.76,1.08C250.88,220.7,248.18,220.5,245.61,220.39Z" transform="translate(-120.51 -44.27)"/><path class="cls-27" d="M227.64,183.38l-1,.11-2-.09c-.83.8-1.59.59-2.32-.16s-.9-2-1.67-2.84l0-1.93Q224.11,180.93,227.64,183.38Z" transform="translate(-120.51 -44.27)"/><path class="cls-29" d="M290.54,187.25c.7-2.45,1.25-5,3-6.95C293.07,182.84,295,186.45,290.54,187.25Z" transform="translate(-120.51 -44.27)"/><path class="cls-15" d="M178.61,170.39h.85a4.11,4.11,0,0,1,1.3,5l-.13,2c-.21.63-.28,2-1.19.54C178,175.58,178.8,172.91,178.61,170.39Z" transform="translate(-120.51 -44.27)"/><path class="cls-30" d="M294.6,123.36l.18,1.13c-.06.63-.11,1.26-.17,1.89-1.86.74-2.68,3.3-5.17,2.94A6.71,6.71,0,0,1,294.6,123.36Z" transform="translate(-120.51 -44.27)"/><path class="cls-31" d="M186.61,129.38l.15,1.31a.47.47,0,0,1-.11.8q-1.38,2-2.74,4C182.72,132.55,184.27,130.79,186.61,129.38Z" transform="translate(-120.51 -44.27)"/><path class="cls-32" d="M261.61,214.38c-.11.3-.2.59-.29.89-1.94.08-3.6,1.86-5.71.95a1.31,1.31,0,0,1,.12-1.51C257.6,213.1,259.55,212.8,261.61,214.38Z" transform="translate(-120.51 -44.27)"/><path class="cls-33" d="M294.78,174.37l-.17-3c.71-.48.25-1.62,1.12-2l.89,1C296.41,171.9,297.33,173.94,294.78,174.37Z" transform="translate(-120.51 -44.27)"/><path class="cls-34" d="M255.63,215.39c0,.28,0,.55,0,.83l-2.81,1.24-1.14-.2c-1.1-1.89.25-2.68,1.63-3.18C254.34,213.7,255.61,213.61,255.63,215.39Z" transform="translate(-120.51 -44.27)"/><path class="cls-35" d="M187.63,190.39c-1.83-4.12-1.48-8.25-.38-12.5.37-1.4,2.09-2.88.37-4.5-1.54-2.52-.86-5.31-1-8,1.43-1,.58-3,1.8-4.14a.92.92,0,0,1,1.19.14h0a8.2,8.2,0,0,1,0,8c.33,1.33.66,2.67,1,4-1.35,2.19.3,4.8-1,7-1.32,1.83-2.83,3.64-1,6-1.71,1.36.15,2.11.48,3.17C189.73,191.63,188.33,190.48,187.63,190.39Z" transform="translate(-120.51 -44.27)"/><path class="cls-36" d="M287.62,162.38c1.36-.14,2.86.41,4-.84,1.73-.3,3.32-.29,3.92,1.83-.29.5-.6.53-.92,0-4.16,1.94-2.74,5.75-3,9a2.36,2.36,0,0,1-2,1c-.67,0-1.81,2.54-1.95-.22C287.47,169.58,287.61,166,287.62,162.38Z" transform="translate(-120.51 -44.27)"/><path class="cls-37" d="M237.42,193.5c-2.11-.71-6,1.23-6.11-2s3.85-1.55,6-2.07a1,1,0,0,1,.49,0c2,.66,6-1.57,5.84,2C243.52,194.81,239.62,192.79,237.42,193.5Z" transform="translate(-120.51 -44.27)"/><path class="cls-38" d="M248.61,216.39c-4.33-.17-8.66,2.68-13,0,1.56-1.78,3.64-2,5.81-2,.67,0,0,.32.47,0,.77-.54-.48-.45-.43-.88-.38-1,.4-1.56.83-2.25,1.46-1.52,4,.08,5.32-1.8l2-1a2.41,2.41,0,0,1,2.46,1.67c.36,1.48,2.35,1.28,2.79,2.67C253.41,215,250.17,214.28,248.61,216.39Z" transform="translate(-120.51 -44.27)"/><path class="cls-39" d="M203,159.28c7.81,1.27,5.38,7.5,6.76,12.27C207.11,170,204,164.07,203,159.28Z" transform="translate(-120.51 -44.27)"/><path class="cls-40" d="M189.61,161.39h-1c-.75.59-1,1.67-2,2-2-1.56.25-5.94-4-6-2.51-.27-1.73-1.65-1-3,2.47-.62,1.5-2.51,1.48-4a3.84,3.84,0,0,1,1.55-3c1.59-1.51,1.79-.24,2,1,1.21,2.33.39,4.66,0,7C187.23,157.58,189.42,159,189.61,161.39Z" transform="translate(-120.51 -44.27)"/><path class="cls-41" d="M182.61,154.39q-1.89,1.5,0,3c0,1.34,0,2.67,0,4-.59,1.51-.69,3.27-2.2,4.32a1.25,1.25,0,0,1-1.2-.64c-.23-1.74.19-3.54-.53-5.23q.51-2.73,1-5.46c1-1.66-.07-3.62.79-5.29l.27-1.7h.85a4.74,4.74,0,0,1,1.67,3.37C183.61,152.07,183.78,153.35,182.61,154.39Z" transform="translate(-120.51 -44.27)"/><path class="cls-42" d="M248.61,216.39c-.39-4.94,4.66-1.68,6-4a2.2,2.2,0,0,1,3,0,2.12,2.12,0,0,0,2-1c.73-.35,1.22,0,1.68.54.46.76.92,1.52.3,2.42h0c-2.06,0-4.13-.18-6,1-2.37-1.6-3.32-.17-4,1.88C250.52,217.39,249.38,217.56,248.61,216.39Z" transform="translate(-120.51 -44.27)"/><path class="cls-43" d="M234.63,127.39a5.09,5.09,0,0,0,1.37,5.53c1.77,1.87-.72,1.11-1.38,1.47-3.22.38-4.72-.92-3.77-4.17.4-1.38-.23-2.56-.23-3.83L231,126a2.15,2.15,0,0,1,1.72.06A2.83,2.83,0,0,1,234.63,127.39Z" transform="translate(-120.51 -44.27)"/><path class="cls-44" d="M229.61,126.38a2.09,2.09,0,0,1-2-1c-1.58-1.79-.81-4-1-6-.15-1.72.36-3.56-1-5h0c-.1-.29-.19-.58-.28-.87.15-.26.29-.53.44-.8a2.58,2.58,0,0,1,2.52-.76C231.57,115.15,232.09,121,229.61,126.38Z" transform="translate(-120.51 -44.27)"/><path class="cls-45" d="M242.61,211.4l-1,2a9.52,9.52,0,0,1-7.44,1.07c-1.48-.8-5.27,1.59-4.08-2.93a1.2,1.2,0,0,1,1.53-.14h10A.64.64,0,0,1,242.61,211.4Z" transform="translate(-120.51 -44.27)"/><path class="cls-46" d="M225.62,114.38c3.19.76,1.74,3.35,1.95,5.2a53.57,53.57,0,0,1,0,5.81c-1.57.66-2.06.06-2-1.54C225.67,120.7,225.62,117.54,225.62,114.38Z" transform="translate(-120.51 -44.27)"/><path class="cls-47" d="M196.62,124.38c0,.61,1.18,1.71-.44,1.65-.78,0-2.21-.46-1.82-1.78,1-3.26,3.83-4.76,6.58-6.18.75-.39,1.48.58,1.54,1.45.14,1.8-1,1.14-1.87.88Q198.6,122.36,196.62,124.38Z" transform="translate(-120.51 -44.27)"/><path class="cls-48" d="M242.65,196.13H232.52C235.84,193.79,239.23,194,242.65,196.13Z" transform="translate(-120.51 -44.27)"/><path class="cls-37" d="M229.61,126.38c0-3.12,0-6.25,0-9.38,0-1.85.06-3.68-2-4.61a2.47,2.47,0,0,1,0-3.28,2.13,2.13,0,0,1,2.5.44c2.32,5.55,2,11.18.46,16.84h-1Z" transform="translate(-120.51 -44.27)"/><path class="cls-49" d="M242.61,211.4h-1c-.29-.88-1.88-1.07-1.38-2.29.38-.92,1.41-.78,2.13-.56a13.42,13.42,0,0,0,5.24.85C247.5,214,244.07,210.22,242.61,211.4Z" transform="translate(-120.51 -44.27)"/><path class="cls-50" d="M231.62,211.39h-1a3.22,3.22,0,0,1-3.48.52l-.54-.51,2-2a1.36,1.36,0,0,1,2,0c2.14.48,4.21-1.86,6.72-.27C235.79,211.43,232.89,209.37,231.62,211.39Z" transform="translate(-120.51 -44.27)"/><path class="cls-51" d="M212.61,212.4l-2,0,3-3a3.89,3.89,0,0,1,4,0C218.27,214.27,214.43,211.65,212.61,212.4Z" transform="translate(-120.51 -44.27)"/><path class="cls-42" d="M187.6,130.37a3.1,3.1,0,0,1,2-3.13,18.54,18.54,0,0,1,.88,9.07.45.45,0,0,1-.36.23,1.19,1.19,0,0,1-.45-.15A7.83,7.83,0,0,1,187.6,130.37Z" transform="translate(-120.51 -44.27)"/><path class="cls-52" d="M275.61,196.39c3.16.43.86,2.92,1.6,4.27-1.26.12-2.68.68-3.73.27-1.3-.51-.06-1.66.14-2.53C273.76,197.22,275,197.07,275.61,196.39Z" transform="translate(-120.51 -44.27)"/><path class="cls-53" d="M186.62,155.39c-1.75-2.33-.52-4.66,0-7h1a1.18,1.18,0,0,1,1,1C188.43,151.55,189.38,154.09,186.62,155.39Z" transform="translate(-120.51 -44.27)"/><path class="cls-54" d="M220.62,216.39a2.13,2.13,0,0,0-2-1c.18-2.49,3.21-2.11,4-4,.94.65,2.24-.17,3.12.75a1.83,1.83,0,0,1,.13,1.26c-1.15,1-1.48,2.58-2.72,3.49A3.38,3.38,0,0,1,220.62,216.39Z" transform="translate(-120.51 -44.27)"/><path class="cls-49" d="M251.62,210.38l-2-2c2.93-.41,5.35.4,7,3C254.74,212.1,252.93,212.47,251.62,210.38Z" transform="translate(-120.51 -44.27)"/><path class="cls-49" d="M189.62,169.39v-8Q194.08,165.38,189.62,169.39Z" transform="translate(-120.51 -44.27)"/><path class="cls-37" d="M218.62,113.39c.33-2.66,2.43-1.82,4-2,2.1-1,3.7-1.2,3,2h0A10.93,10.93,0,0,1,218.62,113.39Z" transform="translate(-120.51 -44.27)"/><path class="cls-44" d="M188.61,149.39l-1-1c.67-2-1.6-5,2-6a11,11,0,0,1,0,7Z" transform="translate(-120.51 -44.27)"/><path class="cls-55" d="M215.62,142.39c.88-5.86,2.83-.54,5.14-1-2.15,2.22-3.75.45-5.15,1Z" transform="translate(-120.51 -44.27)"/><path class="cls-56" d="M251.62,210.38a8.05,8.05,0,0,0,5,1l1,1-3,0c-1.09,0-2.18,0-3.27-.08-.68,0-1.35-.37-1.17-1C250.29,210.88,251.12,210.68,251.62,210.38Z" transform="translate(-120.51 -44.27)"/><path class="cls-57" d="M196.62,124.38a4.14,4.14,0,0,1,4-4A4.14,4.14,0,0,1,196.62,124.38Z" transform="translate(-120.51 -44.27)"/><path class="cls-58" d="M287,180.74c2.05,1.77,1.83,3.18.52,5.23C286.14,184.28,286.62,182.77,287,180.74Z" transform="translate(-120.51 -44.27)"/><path class="cls-59" d="M284.91,186.15c-1.53-2.13-1.69-3.54.28-5.5C285.71,182.71,285.91,184.12,284.91,186.15Z" transform="translate(-120.51 -44.27)"/><path class="cls-60" d="M260.5,181.8c.87.11,1,.74.94,1.42A1.79,1.79,0,0,1,260,185c-1.07.12-1.36-.72-1.13-1.64A1.79,1.79,0,0,1,260.5,181.8Z" transform="translate(-120.51 -44.27)"/><path class="cls-61" d="M260.62,212.38l-1-1a2.05,2.05,0,0,1-1-2,2,2,0,0,1,3,0l2,3A2.14,2.14,0,0,1,260.62,212.38Z" transform="translate(-120.51 -44.27)"/><path class="cls-59" d="M261.6,209.4h-3c1.05-2.13,2.68-2.37,4.15-.63Z" transform="translate(-120.51 -44.27)"/><path class="cls-62" d="M215.61,142.39c-.33,1.21,1.55,2.42.06,3.54-.2.16-1.28-.39-1.54-.85-.88-1.56-.26-2.48,1.49-2.69Z" transform="translate(-120.51 -44.27)"/><path class="cls-46" d="M225.62,113.39c-.1-2-1.55-2-3-2v-1a2.14,2.14,0,0,1,3,0l1-1a.6.6,0,0,1,1,0v3Z" transform="translate(-120.51 -44.27)"/><path class="cls-63" d="M181.79,142.41c1.74-.49,3.26-.64,2.83,2-2.38,3.82-1.71-1.22-2.86-1Z" transform="translate(-120.51 -44.27)"/><path class="cls-64" d="M187.6,130.37c.76,2,2,3.8,2,6h-1c-1.7-.28-1.16-2.07-2-2.94,0-.65,0-1.31,0-2a3.09,3.09,0,0,0,.11-.8A7.67,7.67,0,0,0,187.6,130.37Z" transform="translate(-120.51 -44.27)"/><path class="cls-65" d="M208.61,114.39c.12-.9-2-.67-1-2,1.4.44,3.65.15,3.27,2.4C210.72,115.78,209.29,115.22,208.61,114.39Z" transform="translate(-120.51 -44.27)"/><path class="cls-66" d="M219.61,108.4c-1.68,0-1.61-.81-.88-1.92,1.36,0,2.85-.52,3.88.9Z" transform="translate(-120.51 -44.27)"/><path class="cls-67" d="M186.66,133.45l2,2.94a3.54,3.54,0,0,1-2,2C185.53,136.73,186.89,135.1,186.66,133.45Z" transform="translate(-120.51 -44.27)"/><path class="cls-68" d="M289.61,173.39a2.1,2.1,0,0,1,2-1c-.12,1.39.44,3-1,4C289.46,175.68,289.64,174.5,289.61,173.39Z" transform="translate(-120.51 -44.27)"/><path class="cls-69" d="M211.63,110.4h3c-.16.89.38,2.33-.93,2.44S212.23,111.31,211.63,110.4Z" transform="translate(-120.51 -44.27)"/><path class="cls-70" d="M218.62,113.39h7c0,.33,0,.67,0,1C223.29,114,220.72,115.31,218.62,113.39Z" transform="translate(-120.51 -44.27)"/><path class="cls-71" d="M256.13,184c-.21.19-.6.78-1.12.92a.75.75,0,0,1-.93-1.07,2.42,2.42,0,0,1,1.36-1.08C255.9,182.66,256.32,183.05,256.13,184Z" transform="translate(-120.51 -44.27)"/><path class="cls-72" d="M207.58,211.45c.19-1.17-.32-2.76,1.67-2.84.26,0,.75.24.77.41.19,1.79-1.55,1.68-2.45,2.41Z" transform="translate(-120.51 -44.27)"/><path class="cls-32" d="M260.62,212.38h3l2.29.12a8.45,8.45,0,0,1-4.29,1.88Z" transform="translate(-120.51 -44.27)"/><path class="cls-73" d="M189.62,149.39c0-2.33,0-4.67,0-7A5.79,5.79,0,0,1,189.62,149.39Z" transform="translate(-120.51 -44.27)"/><path class="cls-74" d="M182.62,150.4l-1-3h3l-1,3A.59.59,0,0,1,182.62,150.4Z" transform="translate(-120.51 -44.27)"/><path class="cls-75" d="M189.62,180.39c.38-2.33-.92-4.89,1-7C190.23,175.72,191.53,178.28,189.62,180.39Z" transform="translate(-120.51 -44.27)"/><path class="cls-76" d="M259.61,177.39c-.12.89.3,2-.86,2.45-.19.08-.85-.44-.9-.75-.21-1.31.77-1.55,1.77-1.7Z" transform="translate(-120.51 -44.27)"/><path class="cls-38" d="M225.62,110.39h-3v-2C224.07,108.38,225.51,108.38,225.62,110.39Z" transform="translate(-120.51 -44.27)"/><path class="cls-77" d="M259.62,177.39c.12-.89-.3-2,.87-2.45.18-.07.84.44.89.75.21,1.31-.76,1.55-1.77,1.7Z" transform="translate(-120.51 -44.27)"/><path class="cls-78" d="M222.61,182.4a2.14,2.14,0,0,0,2,1c-1,3.13-2,1.53-3,0C221.31,182.42,221.68,182.13,222.61,182.4Z" transform="translate(-120.51 -44.27)"/><path class="cls-79" d="M225.63,212.4c-1.1,0-2.27.16-3-1a3.17,3.17,0,0,1,4,0h0C226.86,212.3,226.53,212.63,225.63,212.4Z" transform="translate(-120.51 -44.27)"/><path class="cls-63" d="M275.61,196.39l-2,2C272.24,195.72,274.57,196.69,275.61,196.39Z" transform="translate(-120.51 -44.27)"/><path class="cls-80" d="M222.61,182.4l-1,1c-2.62-.24-.64-2-1-3A3.39,3.39,0,0,1,222.61,182.4Z" transform="translate(-120.51 -44.27)"/><path class="cls-81" d="M214.65,177.49c.39.56.78.9.8,1.25s-.42.6-.65.9c-.3-.32-.75-.61-.83-1S214.32,178,214.65,177.49Z" transform="translate(-120.51 -44.27)"/><path class="cls-82" d="M218.56,184.59c-.67.19-1.11.49-1.4.37s-.56-.62-.83-1c.38-.15.78-.47,1.12-.4S218.05,184.11,218.56,184.59Z" transform="translate(-120.51 -44.27)"/><path class="cls-83" d="M285,188.16c.83.62,1.78,1.62,1,2.29s-1.17-.61-1.31-1.37C284.68,188.82,284.92,188.5,285,188.16Z" transform="translate(-120.51 -44.27)"/><path class="cls-84" d="M230.61,209.39h-2l-2.52-.21C228.11,208.12,229.41,208.05,230.61,209.39Z" transform="translate(-120.51 -44.27)"/><path class="cls-85" d="M217.61,209.4h-4C215,208.34,216.29,207.37,217.61,209.4Z" transform="translate(-120.51 -44.27)"/><path class="cls-86" d="M294.61,163.4l.92,0,.2,6-1.12,2Z" transform="translate(-120.51 -44.27)"/><path class="cls-87" d="M294.6,123.36l-5.16,6c-8.6,5.89-23.45.72-22.68-14.68,5.95-11.23,10.5-13.37,21.63-10.14l5.93,6.12A18.43,18.43,0,0,1,294.6,123.36Z" transform="translate(-120.51 -44.27)"/><path class="cls-88" d="M234.63,127.39a2.09,2.09,0,0,1-2-1c-.25-.23-.33-.44-.25-.66s.18-.33.26-.33c2.13-4,.45-8.31,1-12.44.29-2.19-.86-4.6,1-6.56C235.63,113.39,236.57,120.39,234.63,127.39Z" transform="translate(-120.51 -44.27)"/><path class="cls-89" d="M232.62,125.39c0,.33,0,.66,0,1h-2c0-5.69.4-11.4-1-17-.24-.9.09-1.23,1-1,2.39.35,2,2.2,2,3.78C232.63,116.57,232.62,121,232.62,125.39Z" transform="translate(-120.51 -44.27)"/><path class="cls-90" d="M230.6,108.38l-1,1-2,0-1,0c.07-1.27-.12-2.71,1.74-2.9A1.82,1.82,0,0,1,230.6,108.38Z" transform="translate(-120.51 -44.27)"/><path class="cls-91" d="M180.61,165.41c.2-1.57-.67-3.68,2-4,1.66,1.41.77,3.32,1,5-1.08,1.22,0,2.88-.87,4.14-2.8,0-1.71-2.45-2.36-3.81A1.2,1.2,0,0,1,180.61,165.41Z" transform="translate(-120.51 -44.27)"/><path class="cls-41" d="M180.62,166.38c1.6.88.4,3.14,2,4a1.35,1.35,0,0,1,0,2l-1.86,3-.21-1.81A12.25,12.25,0,0,1,180.62,166.38Z" transform="translate(-120.51 -44.27)"/><path class="cls-92" d="M186.61,163.4a1.84,1.84,0,0,1,2-2c-.18,1.57.67,3.66-2,4C186.62,164.72,186.61,164.06,186.61,163.4Z" transform="translate(-120.51 -44.27)"/><path class="cls-93" d="M184.57,179.36l-1.89-.06c.13-.88-.45-2.36.95-2.33S184.43,178.47,184.57,179.36Z" transform="translate(-120.51 -44.27)"/><path class="cls-94" d="M182.62,172.38c0-.66,0-1.32,0-2,.15-1.38-.46-3,1-4C183.3,168.4,184.44,170.64,182.62,172.38Z" transform="translate(-120.51 -44.27)"/><path class="cls-2" d="M225.63,212.4c.32-.33.64-.67,1-1h4c-1,3.7,2,1.32,3,2,.3,2.61-2.4.7-3,2-1.21.7-2.82,1-3,2.77-.21.67-.58.77-1.1.3a11,11,0,0,1-5.88-1.21v-.85h3c.63-1,1.64-1.81,2-3C225.62,213.06,225.62,212.73,225.63,212.4Z" transform="translate(-120.51 -44.27)"/><path class="cls-42" d="M230.63,215.38l3-2h8c1.43.12,3-.36,4.58,1.45l-10.58,1.55A8.31,8.31,0,0,0,230.63,215.38Z" transform="translate(-120.51 -44.27)"/><path class="cls-95" d="M226.5,218.45l1.1-.3c2,.63,4.24-.51,6,1.12l-3,.28Z" transform="translate(-120.51 -44.27)"/><path class="cls-96" d="M180.62,166.38q0,3.59-.07,7.17c-.36-1.05-.72-2.1-1.09-3.16-.13-1.39-.27-2.79-.41-4.19a1,1,0,0,1,.49-.81l1.07,0C180.61,165.73,180.61,166.06,180.62,166.38Z" transform="translate(-120.51 -44.27)"/><path class="cls-1" d="M179.54,165.39c-.16.28-.32.55-.49.81-.86-2.07-.25-4.24-.37-6.36Q179.12,162.62,179.54,165.39Z" transform="translate(-120.51 -44.27)"/><path class="cls-97" d="M180.5,149.09c0,1.8.73,3.71-.79,5.29C179.63,152.56,179.38,150.72,180.5,149.09Z" transform="translate(-120.51 -44.27)"/><path class="cls-98" d="M182.62,150.4l1,0a3.76,3.76,0,0,1,.81,4.51c-.86,2.1-1.49.79-1.8-.5C182.61,153.06,182.62,151.73,182.62,150.4Z" transform="translate(-120.51 -44.27)"/><path class="cls-99" d="M225.61,213.38c1.77,2.64-.51,2.56-2,3C222.24,214,223.21,213.23,225.61,213.38Z" transform="translate(-120.51 -44.27)"/></svg>