<svg id="Capa_1" data-name="Capa 1" xmlns="http://www.w3.org/2000/svg" viewBox="0 0 35.4 31.78"><defs><style>.cls-1{fill:#2a2a2a;}.cls-2{fill:#fff;}</style></defs><title>like</title><path class="cls-1" d="M425.12,415.76a10.58,10.58,0,0,1-3.37,7.87c-3.81,3.7-7.77,7.25-11.65,10.89-1.77,1.66-3.57,1.66-5.3.05-4.12-3.85-8.45-7.52-12.19-11.71-3.37-3.77-3.68-8.46-1.5-13.05,1.79-3.77,5.36-6.58,9.1-5.65a30.6,30.6,0,0,0,14.55,0C420.2,403,425.15,409.07,425.12,415.76Z" transform="translate(-389.72 -403.98)"/><path class="cls-2" d="M407.5,412.69c4.18-6,7.48-7.05,11.52-3.9,3.81,3,4.25,8.53.44,12.81-3.19,3.59-7,6.62-10.53,9.9a1.77,1.77,0,0,1-2.87,0c-3.46-3.35-7.14-6.48-10.5-9.92a8.51,8.51,0,0,1-2.12-9.21,7.53,7.53,0,0,1,6.24-5.12C403.79,406.58,405.39,409.85,407.5,412.69Z" transform="translate(-389.72 -403.98)"/></svg>