<svg id="Capa_1" data-name="Capa 1" xmlns="http://www.w3.org/2000/svg" viewBox="0 0 34.11 34.62"><defs><style>.cls-1{fill:#2c2c2c;}.cls-2{fill:#fff;}.cls-3{fill:#353535;}</style></defs><title>mas</title><path class="cls-1" d="M263.67,437.19c-15.16,0-17.21-2.05-17.2-17.22,0-1,0-2,0-3,.32-11.58,3.16-14.37,14.63-14.38,2,0,4,0,6,0,9.94.08,13,3,13.39,13a94.12,94.12,0,0,1-.16,10.49c-.63,8.11-3.61,10.85-11.68,11.08C267,437.23,265.33,437.19,263.67,437.19Z" transform="translate(-246.46 -402.58)"/><path class="cls-2" d="M263.84,405.75c1.33,0,2.66,0,4,0,7.12.14,9.19,2.05,9.41,9.09.12,4,0,8-.16,12-.21,4.48-2.51,7.07-7.18,7.11-4.32,0-8.65.15-13,0s-6.81-2.39-7-6.77-.3-8.64-.13-12.94c.26-6.26,2.33-8.17,8.53-8.4,1.83-.07,3.66,0,5.49,0Z" transform="translate(-246.46 -402.58)"/><path class="cls-3" d="M263.28,429.9c-1.59-.44-1.42-1.75-1.29-2.84.46-3.87-.19-6.5-5.07-5.53-1.18.24-3,.34-3.13-1.47-.12-2.3,2-1.95,3.29-1.8,3.63.39,5.6-.54,4.94-4.7-.2-1.28-.76-3.5,1.38-3.61s1.8,2.14,1.59,3.41c-.76,4.5,1.45,5.38,5.26,4.89,1.22-.16,2.93-.27,2.91,1.71,0,1.59-1.45,1.79-2.55,1.58-5.17-1-6.27,1.59-5.6,6C265.18,428.72,264.9,429.91,263.28,429.9Z" transform="translate(-246.46 -402.58)"/></svg>