<svg id="Capa_1" data-name="Capa 1" xmlns="http://www.w3.org/2000/svg" viewBox="0 0 48.15 42.6"><defs><style>.cls-1{fill:#e94b57;}.cls-2{fill:#2c2b2b;}.cls-3{fill:#f9f8f8;}.cls-4{fill:#f2f2f2;}.cls-5{fill:#fcf8f9;}.cls-6{fill:#faba58;}.cls-7{fill:#c8589c;}</style></defs><title>md</title><path class="cls-1" d="M194.9,404c3.46-10,11-14.38,19.2-11.08a14,14,0,0,1-9.49,26.25c-1.1-.36-2.15-.84-3.23-1.27-1.22.13-2-.66-2.81-1.35a25.54,25.54,0,0,1-2.83-2.58,13.76,13.76,0,0,0-1.54-3.62,10.35,10.35,0,0,1-.38-3.59A4.41,4.41,0,0,1,194.9,404Z" transform="translate(-174.86 -391.79)"/><path class="cls-2" d="M195.43,410.37c.59.93,1.5,1.75,1,3a2,2,0,0,1-.9,1.66c-5.09,4.16-5.09,4.16-3.57,10.54,2.69-3,3.13-7.62,7.09-9.54l2.28,1.79-8.28,14.7c-.48.87-1,1.95-2.08,1.82-1.36-.16-1.64-1.47-2-2.59a12.64,12.64,0,0,1-.52-2.41c-.65-8.43-4.6-15-11.16-20.16-1.24-1-3.08-2.13-2.37-4s2.86-1.23,4.44-1.25c5.15,0,10.3,0,15.45,0,0,1.06,0,2.11,0,3.17-3.61,2.09-7.71.23-11.58,1.34,2.23,3.74,4.87,5.31,8.83,2.55A3.91,3.91,0,0,1,195.43,410.37Z" transform="translate(-174.86 -391.79)"/><path class="cls-3" d="M199.1,416.07,192,428.16c-4-10.09-4-10.09,4.44-14.75A6.07,6.07,0,0,1,199.1,416.07Z" transform="translate(-174.86 -391.79)"/><path class="cls-4" d="M195.43,410.37l-.42.27c-7.88,4.53-7.88,4.53-14.78-3.51h14.65C195.07,408.21,195.25,409.29,195.43,410.37Z" transform="translate(-174.86 -391.79)"/><path class="cls-5" d="M210,412.76l-.48.09-.49-.11c-1.37-2.95.42-6.25-1-9.2l-1.76-.34A3.26,3.26,0,0,1,210,401,28,28,0,0,1,210,412.76Z" transform="translate(-174.86 -391.79)"/><path class="cls-6" d="M210,412.76V401A14.54,14.54,0,0,1,210,412.76Z" transform="translate(-174.86 -391.79)"/><path class="cls-7" d="M208,403.54c1.95,1.1.7,2.92.91,4.38a35.18,35.18,0,0,1,.08,4.82C207,409.86,208.48,406.6,208,403.54Z" transform="translate(-174.86 -391.79)"/></svg>